<svg width="55" height="15" viewBox="0 0 55 15" fill="none" xmlns="http://www.w3.org/2000/svg">
<path d="M0.142578 14V1.20312H4.08008C5.20508 1.20312 6.20996 1.45801 7.09473 1.96777C7.98535 2.47168 8.67969 3.19238 9.17773 4.12988C9.67578 5.06152 9.9248 6.12207 9.9248 7.31152V7.90039C9.9248 9.08984 9.67871 10.1475 9.18652 11.0732C8.7002 11.999 8.01172 12.7168 7.12109 13.2266C6.23047 13.7363 5.22559 13.9941 4.10645 14H0.142578ZM2.7793 3.33887V11.8818H4.05371C5.08496 11.8818 5.87305 11.5449 6.41797 10.8711C6.96289 10.1973 7.24121 9.2334 7.25293 7.97949V7.30273C7.25293 6.00195 6.9834 5.01758 6.44434 4.34961C5.90527 3.67578 5.11719 3.33887 4.08008 3.33887H2.7793ZM16.0596 14.1758C14.665 14.1758 13.5283 13.748 12.6494 12.8926C11.7764 12.0371 11.3398 10.8975 11.3398 9.47363V9.22754C11.3398 8.27246 11.5244 7.41992 11.8936 6.66992C12.2627 5.91406 12.7842 5.33398 13.458 4.92969C14.1377 4.51953 14.9111 4.31445 15.7783 4.31445C17.0791 4.31445 18.1016 4.72461 18.8457 5.54492C19.5957 6.36523 19.9707 7.52832 19.9707 9.03418V10.0713H13.915C13.9971 10.6924 14.2432 11.1904 14.6533 11.5654C15.0693 11.9404 15.5938 12.1279 16.2266 12.1279C17.2051 12.1279 17.9697 11.7734 18.5205 11.0645L19.7686 12.4619C19.3877 13.001 18.8721 13.4229 18.2217 13.7275C17.5713 14.0264 16.8506 14.1758 16.0596 14.1758ZM15.7695 6.37109C15.2656 6.37109 14.8555 6.54102 14.5391 6.88086C14.2285 7.2207 14.0293 7.70703 13.9414 8.33984H17.4746V8.1377C17.4629 7.5752 17.3105 7.1416 17.0176 6.83691C16.7246 6.52637 16.3086 6.37109 15.7695 6.37109ZM24.8574 10.8975L26.624 4.49023H29.2783L26.0703 14H23.6445L20.4365 4.49023H23.0908L24.8574 10.8975ZM33.8574 10.1855L32.9434 11.0996V14H30.4033V0.5H32.9434V7.97949L33.4355 7.34668L35.8701 4.49023H38.9199L35.4834 8.4541L39.2188 14H36.3008L33.8574 10.1855ZM45.7139 13.0332C45.0869 13.7949 44.2197 14.1758 43.1123 14.1758C42.0928 14.1758 41.3135 13.8828 40.7744 13.2969C40.2412 12.7109 39.9688 11.8525 39.957 10.7217V4.49023H42.4971V10.6338C42.4971 11.624 42.9482 12.1191 43.8506 12.1191C44.7119 12.1191 45.3037 11.8203 45.626 11.2227V4.49023H48.1748V14H45.7842L45.7139 13.0332ZM53.1318 2.15234V4.49023H54.7578V6.35352H53.1318V11.0996C53.1318 11.4512 53.1992 11.7031 53.334 11.8555C53.4688 12.0078 53.7266 12.084 54.1074 12.084C54.3887 12.084 54.6377 12.0635 54.8545 12.0225V13.9473C54.3564 14.0996 53.8438 14.1758 53.3164 14.1758C51.5352 14.1758 50.627 13.2764 50.5918 11.4775V6.35352H49.2031V4.49023H50.5918V2.15234H53.1318Z" fill="#397DCD"/>
</svg>
