<svg width="16" height="14" viewBox="0 0 16 14" fill="none" xmlns="http://www.w3.org/2000/svg">
<path d="M16.0001 6.13277C16.0001 6.01005 15.8685 5.9323 15.761 5.99149L12.6258 7.71764L12.3354 8.86289L12.6258 10.01L14.3129 11.2292L16.0001 11.8677V6.13277Z" fill="#454D58"/>
<path d="M12.6258 10.5906L15.761 12.3167C15.8685 12.3759 16.0001 12.2981 16.0001 12.1754V11.8677L12.6258 10.0099L12.3354 10.327L12.6258 10.5906Z" fill="#3C434C"/>
<path d="M1.21406 7.01084L0.230344 6.54484C0.123344 6.49415 0 6.57218 0 6.69059V8.85737L0.607031 8.86012L1.21406 8.28224L1.50437 7.69462L1.21406 7.01084Z" fill="#A6AEC4"/>
<path d="M0.230344 9.32888L1.21406 8.86285L1.50437 8.57254L1.21406 8.28223L0 8.85735V9.1831C0 9.30154 0.123344 9.37957 0.230344 9.32888Z" fill="#959DB0"/>
<path d="M2.49555 8.28221L1.85483 8.57252L1.21411 8.28221V7.0108H2.49555L2.78589 7.69458L2.49555 8.28221Z" fill="#454D58"/>
<path d="M1.21411 8.86288H2.49555L2.78589 8.57254L2.49555 8.28223H1.21411V8.86288Z" fill="#3C434C"/>
<path d="M9.47501 5.56952C10.9372 5.56952 12.2852 4.15593 12.2852 2.74456C12.1399 1.32074 10.9372 0.2099 9.47501 0.2099C8.01283 0.2099 6.81014 1.32077 6.66479 2.74456C6.66476 4.21931 8.01283 5.56952 9.47501 5.56952Z" fill="#454D58"/>
<path d="M4.74588 5.56949C6.01979 5.56949 6.70442 4.50959 6.70442 3.58956C6.56395 2.63374 5.7407 1.89996 4.74588 1.89996C3.75104 1.89996 2.92782 2.63374 2.78735 3.58956C2.78732 4.59849 3.50973 5.56949 4.74588 5.56949Z" fill="#454D58"/>
<path d="M3.36545 13.4999H11.7559C12.4837 13.4999 12.6258 12.8201 12.6258 12.3397V6.72971C12.6258 6.2493 12.2363 5.85986 11.7559 5.85986H3.36545C2.88504 5.85986 2.49561 6.2493 2.49561 6.72971V12.3397C2.49561 12.8201 2.71695 13.4999 3.36545 13.4999Z" fill="#A6AEC4"/>
<path d="M5.29476 10.4883H9.82667C10.1493 10.4883 10.1493 10.0535 10.1493 9.87536V7.81664C10.1493 7.63849 10.0048 7.49408 9.82667 7.49408H5.29476C5.11661 7.49408 4.97217 7.63852 4.97217 7.81664V9.87536C4.97217 10.0535 4.97217 10.4883 5.29476 10.4883Z" fill="#BED8FB"/>
<path d="M9.47507 3.73602C10.2071 3.73602 10.4233 3.16999 10.4233 2.74452C10.2992 2.33862 9.92163 2.04333 9.47507 2.04333C9.02851 2.04333 8.65101 2.33858 8.52686 2.74452C8.52686 3.1839 8.77404 3.73602 9.47507 3.73602Z" fill="#A6AEC4"/>
<path d="M4.1875 3.58959C4.1875 3.83481 4.27153 4.21931 4.74594 4.21931C5.25497 4.21931 5.30441 3.80293 5.30441 3.58959C5.19941 3.38803 4.98894 3.25018 4.74594 3.25018C4.50297 3.25018 4.2925 3.38806 4.1875 3.58959Z" fill="#A6AEC4"/>
<path d="M11.7559 13.2096H3.36545C2.88504 13.2096 2.49561 12.8201 2.49561 12.3397V12.9204C2.49561 13.4008 2.88504 13.7902 3.36545 13.7902H11.7559C12.2363 13.7902 12.6258 13.4008 12.6258 12.9204V12.3397C12.6258 12.8201 12.2363 13.2096 11.7559 13.2096Z" fill="#959DB0"/>
<path d="M9.82661 10.1979H5.29473C5.11657 10.1979 4.97217 10.0535 4.97217 9.87531V10.456C4.97217 10.6341 5.11661 10.7786 5.29473 10.7786H9.82664C10.0048 10.7786 10.1492 10.6341 10.1492 10.456V9.87531C10.1492 10.0535 10.0048 10.1979 9.82661 10.1979Z" fill="#A3CAF7"/>
<path d="M4.74581 5.27919C3.75096 5.27919 2.92774 4.54541 2.78728 3.5896C2.77334 3.68438 2.76587 3.78126 2.76587 3.87991C2.76587 4.97341 3.65231 5.85985 4.74581 5.85985C5.83927 5.85985 6.72574 4.97341 6.72574 3.87991C6.72574 3.78126 6.71827 3.68438 6.70437 3.5896C6.56384 4.54538 5.74062 5.27919 4.74581 5.27919Z" fill="#3C434C"/>
<path d="M4.74593 3.92897C4.50296 3.92897 4.29249 3.79113 4.18749 3.5896C4.14221 3.67654 4.11621 3.77513 4.11621 3.87991C4.11621 4.22769 4.39815 4.50963 4.74593 4.50963C5.09371 4.50963 5.37565 4.22769 5.37565 3.87991C5.37565 3.7751 5.34968 3.67651 5.3044 3.5896C5.19937 3.79113 4.9889 3.92897 4.74593 3.92897Z" fill="#959DB0"/>
<path d="M9.47511 5.27922C8.01293 5.27922 6.81024 4.16835 6.6649 2.74457C6.65515 2.84001 6.65015 2.93685 6.65015 3.03488C6.65015 4.59507 7.91493 5.85988 9.47514 5.85988C11.0354 5.85988 12.3001 4.5951 12.3001 3.03488C12.3001 2.93685 12.2951 2.84001 12.2854 2.74457C12.14 4.16835 10.9373 5.27922 9.47511 5.27922Z" fill="#3C434C"/>
<path d="M9.47514 3.44569C9.02858 3.44569 8.65108 3.15044 8.52692 2.74451C8.49883 2.83635 8.48364 2.93379 8.48364 3.03482C8.48364 3.58241 8.92755 4.02632 9.47514 4.02632C10.0227 4.02632 10.4666 3.58241 10.4666 3.03482C10.4666 2.93379 10.4514 2.83632 10.4234 2.74451C10.2992 3.15044 9.92171 3.44569 9.47514 3.44569Z" fill="#959DB0"/>
</svg>
